<svg xmlns="http://www.w3.org/2000/svg" viewBox="0 0 720 1600" role="img" aria-label="Pratinjau halaman pengaturan">
  <rect width="720" height="1600" fill="#0c0f16"/>
  <rect x=".5" y=".5" width="719" height="1599" fill="none" stroke="#20263a"/>
  <rect width="720" height="120" fill="#0b0e15"/>
  <text x="360" y="74" font-family="monospace" font-size="26" fill="#e8eaf2" text-anchor="middle">Pengaturan</text>
  <text x="40" y="74" font-family="monospace" font-size="26" fill="#4d7cff">←</text>
  <!-- api key -->
  <text x="40" y="200" font-family="monospace" font-size="18" fill="#565e73">KUNCI API GEMINI</text>
  <rect x="40" y="220" width="640" height="84" fill="#11151e" stroke="#20263a"/>
  <text x="72" y="270" font-family="monospace" font-size="22" fill="#b8bdcc">••••••••••••••••</text>
  <text x="40" y="360" font-family="monospace" font-size="16" fill="#565e73">Dapatkan kunci di aistudio.google.com/app/apikey</text>
  <!-- currency -->
  <text x="40" y="450" font-family="monospace" font-size="18" fill="#565e73">MATA UANG</text>
  <rect x="40" y="470" width="640" height="84" fill="#11151e" stroke="#20263a"/>
  <text x="72" y="520" font-family="monospace" font-size="22" fill="#b8bdcc">Rupiah (IDR) ▾</text>
  <!-- appearance rows -->
  <text x="40" y="640" font-family="monospace" font-size="18" fill="#565e73">TAMPILAN</text>
  <rect x="40" y="660" width="640" height="110" fill="#10141d" stroke="#20263a"/>
  <text x="72" y="706" font-family="monospace" font-size="22" fill="#e8eaf2">Latar belakang</text>
  <rect x="72" y="724" width="300" height="12" fill="#242a3a"/>
  <rect x="72" y="724" width="180" height="12" fill="#4d7cff"/>
  <rect x="40" y="790" width="640" height="110" fill="#10141d" stroke="#20263a"/>
  <text x="72" y="836" font-family="monospace" font-size="22" fill="#e8eaf2">Foto latar sendiri</text>
  <rect x="580" y="812" width="72" height="44" fill="#242a3a"/>
  <circle cx="632" cy="834" r="12" fill="#4d7cff"/>
  <rect x="40" y="920" width="640" height="110" fill="#10141d" stroke="#20263a"/>
  <text x="72" y="966" font-family="monospace" font-size="22" fill="#e8eaf2">Warna search bar</text>
  <rect x="580" y="942" width="72" height="44" fill="#4d7cff"/>
  <rect x="40" y="1050" width="640" height="110" fill="#10141d" stroke="#20263a"/>
  <text x="72" y="1096" font-family="monospace" font-size="22" fill="#e8eaf2">Blur &amp; transparansi</text>
  <rect x="580" y="1072" width="72" height="44" fill="#242a3a"/>
  <circle cx="632" cy="1094" r="12" fill="#4d7cff"/>
  <!-- info -->
  <rect x="40" y="1240" width="640" height="180" fill="#11151e" stroke="#20263a"/>
  <text x="76" y="1300" font-family="monospace" font-size="20" fill="#868ea6">Kunci API disimpan</text>
  <text x="76" y="1340" font-family="monospace" font-size="20" fill="#868ea6">hanya di perangkat ini.</text>
  <text x="76" y="1380" font-family="monospace" font-size="20" fill="#565e73">Items Recognition v1</text>
</svg>
